<svg width="40" height="40" viewBox="0 0 40 40" fill="none" xmlns="http://www.w3.org/2000/svg">
<path d="M18.125 20C18.125 20.4973 18.3225 20.9742 18.6742 21.3258C19.0258 21.6775 19.5027 21.875 20 21.875C20.4973 21.875 20.9742 21.6775 21.3258 21.3258C21.6774 20.9742 21.875 20.4973 21.875 20C21.875 19.5027 21.6774 19.0258 21.3258 18.6742C20.9742 18.3225 20.4973 18.125 20 18.125C19.5027 18.125 19.0258 18.3225 18.6742 18.6742C18.3225 19.0258 18.125 19.5027 18.125 20ZM25.9375 20C25.9375 20.4973 26.135 20.9742 26.4867 21.3258C26.8383 21.6775 27.3152 21.875 27.8125 21.875C28.3098 21.875 28.7867 21.6775 29.1383 21.3258C29.4899 20.9742 29.6875 20.4973 29.6875 20C29.6875 19.5027 29.4899 19.0258 29.1383 18.6742C28.7867 18.3225 28.3098 18.125 27.8125 18.125C27.3152 18.125 26.8383 18.3225 26.4867 18.6742C26.135 19.0258 25.9375 19.5027 25.9375 20ZM10.3125 20C10.3125 20.4973 10.51 20.9742 10.8617 21.3258C11.2133 21.6775 11.6902 21.875 12.1875 21.875C12.6848 21.875 13.1617 21.6775 13.5133 21.3258C13.8649 20.9742 14.0625 20.4973 14.0625 20C14.0625 19.5027 13.8649 19.0258 13.5133 18.6742C13.1617 18.3225 12.6848 18.125 12.1875 18.125C11.6902 18.125 11.2133 18.3225 10.8617 18.6742C10.51 19.0258 10.3125 19.5027 10.3125 20ZM36.1406 13.2188C35.2578 11.1211 33.9922 9.23828 32.3789 7.62109C30.7769 6.01327 28.8751 4.73524 26.7812 3.85938C24.6328 2.95703 22.3515 2.5 20 2.5H19.9219C17.5547 2.51172 15.2617 2.98047 13.1054 3.90234C11.0295 4.78719 9.14554 6.06749 7.55857 7.67188C5.96092 9.28516 4.70701 11.1602 3.83982 13.25C2.94138 15.4141 2.48826 17.7148 2.49998 20.082C2.51323 22.7948 3.15502 25.4676 4.37498 27.8906V33.8281C4.37498 34.3047 4.56429 34.7617 4.90127 35.0987C5.23825 35.4357 5.69529 35.625 6.17185 35.625H12.1133C14.5363 36.845 17.2091 37.4867 19.9219 37.5H20.0039C22.3437 37.5 24.6133 37.0469 26.75 36.1602C28.8333 35.2947 30.728 34.0316 32.3281 32.4414C33.9414 30.8438 35.2109 28.9766 36.0976 26.8945C37.0195 24.7383 37.4883 22.4453 37.5 20.0781C37.5117 17.6992 37.0508 15.3906 36.1406 13.2188ZM30.2383 30.3281C27.5 33.0391 23.8672 34.5312 20 34.5312H19.9336C17.5781 34.5195 15.2383 33.9336 13.1719 32.832L12.8437 32.6562H7.34373V27.1562L7.16795 26.8281C6.06638 24.7617 5.48045 22.4219 5.46873 20.0664C5.4531 16.1719 6.94138 12.5156 9.67185 9.76172C12.3984 7.00781 16.0429 5.48438 19.9375 5.46875H20.0039C21.957 5.46875 23.8515 5.84766 25.6367 6.59766C27.3789 7.32812 28.9414 8.37891 30.2851 9.72266C31.625 11.0625 32.6797 12.6289 33.4101 14.3711C34.1679 16.1758 34.5469 18.0898 34.539 20.0664C34.5156 23.957 32.9883 27.6016 30.2383 30.3281Z" fill="#4A7AFF"/>
</svg>
