<svg width="34" height="36" viewBox="0 0 34 36" fill="none" xmlns="http://www.w3.org/2000/svg">
<path d="M33.125 22.4414L30.5664 20.2539C30.6875 19.5117 30.75 18.7539 30.75 17.9961C30.75 17.2383 30.6875 16.4805 30.5664 15.7383L33.125 13.5508C33.318 13.3856 33.4561 13.1655 33.521 12.9199C33.5859 12.6743 33.5745 12.4148 33.4883 12.1758L33.4531 12.0742C32.7487 10.1056 31.694 8.28061 30.3398 6.6875L30.2695 6.60547C30.1053 6.41231 29.8863 6.27346 29.6416 6.20722C29.3968 6.14097 29.1377 6.15044 28.8984 6.23438L25.7227 7.36328C24.5508 6.40234 23.2422 5.64453 21.8281 5.11328L21.2148 1.79297C21.1686 1.54313 21.0474 1.31329 20.8674 1.13398C20.6874 0.954661 20.457 0.834362 20.207 0.789063L20.1016 0.769531C18.0664 0.402344 15.9258 0.402344 13.8906 0.769531L13.7852 0.789063C13.5351 0.834362 13.3048 0.954661 13.1248 1.13398C12.9448 1.31329 12.8236 1.54313 12.7773 1.79297L12.1602 5.12891C10.7574 5.66027 9.45105 6.41768 8.29298 7.37109L5.09376 6.23438C4.85456 6.14977 4.59528 6.13996 4.35038 6.20625C4.10547 6.27253 3.88654 6.41178 3.72266 6.60547L3.65235 6.6875C2.2998 8.28173 1.24523 10.1064 0.53907 12.0742L0.503914 12.1758C0.328133 12.6641 0.472664 13.2109 0.867195 13.5508L3.45704 15.7617C3.33594 16.4961 3.27735 17.2461 3.27735 17.9922C3.27735 18.7422 3.33594 19.4922 3.45704 20.2227L0.867195 22.4336C0.67421 22.5988 0.536088 22.8188 0.471195 23.0645C0.406303 23.3101 0.417715 23.5696 0.503914 23.8086L0.53907 23.9102C1.2461 25.8789 2.29298 27.6953 3.65235 29.2969L3.72266 29.3789C3.88694 29.5721 4.10588 29.7109 4.35064 29.7772C4.5954 29.8434 4.85449 29.8339 5.09376 29.75L8.29298 28.6133C9.45704 29.5703 10.7578 30.3281 12.1602 30.8555L12.7773 34.1914C12.8236 34.4412 12.9448 34.6711 13.1248 34.8504C13.3048 35.0297 13.5351 35.15 13.7852 35.1953L13.8906 35.2148C15.9445 35.584 18.0477 35.584 20.1016 35.2148L20.207 35.1953C20.457 35.15 20.6874 35.0297 20.8674 34.8504C21.0474 34.6711 21.1686 34.4412 21.2148 34.1914L21.8281 30.8711C23.2416 30.3412 24.5576 29.581 25.7227 28.6211L28.8984 29.75C29.1376 29.8346 29.3969 29.8444 29.6418 29.7781C29.8867 29.7118 30.1057 29.5726 30.2695 29.3789L30.3398 29.2969C31.6992 27.6914 32.7461 25.8789 33.4531 23.9102L33.4883 23.8086C33.6641 23.3281 33.5195 22.7813 33.125 22.4414ZM27.793 16.1992C27.8906 16.7891 27.9414 17.3945 27.9414 18C27.9414 18.6055 27.8906 19.2109 27.793 19.8008L27.5352 21.3672L30.4531 23.8633C30.0108 24.8824 29.4524 25.8471 28.7891 26.7383L25.1641 25.4531L23.9375 26.4609C23.0039 27.2266 21.9648 27.8281 20.8398 28.25L19.3516 28.8086L18.6523 32.5977C17.5491 32.7227 16.4353 32.7227 15.332 32.5977L14.6328 28.8008L13.1563 28.2344C12.043 27.8125 11.0078 27.2109 10.082 26.4492L8.85548 25.4375L5.20704 26.7344C4.54298 25.8398 3.98829 24.875 3.54298 23.8594L6.49219 21.3398L6.23829 19.7773C6.14454 19.1953 6.09376 18.5938 6.09376 18C6.09376 17.4023 6.14063 16.8047 6.23829 16.2227L6.49219 14.6602L3.54298 12.1406C3.98438 11.1211 4.54298 10.1602 5.20704 9.26562L8.85548 10.5625L10.082 9.55078C11.0078 8.78906 12.043 8.1875 13.1563 7.76563L14.6367 7.20703L15.3359 3.41016C16.4336 3.28516 17.5547 3.28516 18.6563 3.41016L19.3555 7.19922L20.8438 7.75781C21.9648 8.17969 23.0078 8.78125 23.9414 9.54688L25.168 10.5547L28.793 9.26953C29.457 10.1641 30.0117 11.1289 30.457 12.1445L27.5391 14.6406L27.793 16.1992ZM17 10.7344C13.2031 10.7344 10.125 13.8125 10.125 17.6094C10.125 21.4063 13.2031 24.4844 17 24.4844C20.7969 24.4844 23.875 21.4063 23.875 17.6094C23.875 13.8125 20.7969 10.7344 17 10.7344ZM20.0938 20.7031C19.688 21.1101 19.2058 21.4328 18.6748 21.6526C18.1439 21.8725 17.5747 21.9853 17 21.9844C15.832 21.9844 14.7344 21.5273 13.9063 20.7031C13.4993 20.2974 13.1766 19.8151 12.9567 19.2842C12.7368 18.7532 12.6241 18.1841 12.625 17.6094C12.625 16.4414 13.082 15.3438 13.9063 14.5156C14.7344 13.6875 15.832 13.2344 17 13.2344C18.168 13.2344 19.2656 13.6875 20.0938 14.5156C20.5007 14.9214 20.8234 15.4036 21.0433 15.9346C21.2632 16.4655 21.3759 17.0347 21.375 17.6094C21.375 18.7773 20.918 19.875 20.0938 20.7031Z" fill="#4A7AFF"/>
</svg>
